<?xml version="1.0" encoding="UTF-8"?>
<svg xmlns="http://www.w3.org/2000/svg" xmlns:xlink="http://www.w3.org/1999/xlink" width="100pt" height="100pt" viewBox="0 0 100 100" version="1.1">
<defs>
<radialGradient id="radial0" gradientUnits="userSpaceOnUse" cx="0" cy="0" fx="0" fy="0" r="1" gradientTransform="matrix(69.65699,0,0,69.172039,34.37767,24.776602)">
<stop offset="0" style="stop-color:rgb(26.666667%,18.431373%,33.333333%);stop-opacity:0.980392;"/>
<stop offset="1" style="stop-color:rgb(7.058824%,0%,17.254902%);stop-opacity:1;"/>
</radialGradient>
</defs>
<g id="surface1">
<path style=" stroke:none;fill-rule:nonzero;fill:url(#radial0);" d="M 4.164062 4.273438 L 95.816406 4.273438 L 95.816406 95.726562 L 4.164062 95.726562 Z M 4.164062 4.273438 "/>
<path style=" stroke:none;fill-rule:nonzero;fill:rgb(84.705882%,63.137255%,100%);fill-opacity:1;" d="M 4.164062 4.273438 L 95.816406 4.273438 L 95.816406 95.726562 L 4.164062 95.726562 Z M 0 100 L 100 100 L 100 0 L 0 0 Z M 70.746094 48.203125 C 72.867188 48.203125 73.628906 48.203125 73.828125 48.121094 C 73.828125 47.8125 73.910156 47.605469 73.910156 47.402344 C 73.910156 45.101562 72.828125 40.828125 68.503906 40.828125 C 64.496094 40.828125 62.796875 44.425781 62.375 48.222656 L 70.746094 48.222656 Z M 62.292969 54.054688 C 62.375 59.828125 65.039062 63.710938 71.386719 63.710938 C 73.847656 63.710938 75.972656 63.359375 78.171875 62.394531 C 78.472656 62.273438 78.675781 62.3125 78.675781 62.703125 L 78.675781 68.042969 C 78.675781 68.472656 78.554688 68.679688 78.253906 68.90625 C 76.050781 70.015625 73.289062 70.527344 69.882812 70.527344 C 58.890625 70.527344 54.765625 62.1875 54.765625 52.925781 C 54.765625 42.84375 59.851562 34.585938 68.800781 34.585938 C 77.894531 34.585938 81.058594 42.410156 81.058594 48.777344 C 81.058594 50.832031 80.9375 52.496094 80.71875 53.316406 C 80.636719 53.667969 80.515625 53.789062 80.175781 53.871094 C 79.335938 53.996094 76.890625 54.179688 73.226562 54.179688 L 62.316406 54.179688 L 62.316406 54.054688 Z M 39.949219 49.703125 C 38.785156 44.957031 35.941406 34.628906 34.902344 29.617188 L 34.820312 29.617188 C 33.941406 34.605469 31.65625 43.066406 29.957031 49.703125 Z M 28.253906 56.625 L 24.96875 69.398438 C 24.890625 69.746094 24.769531 69.871094 24.347656 69.871094 L 18.203125 69.871094 C 17.78125 69.871094 17.703125 69.746094 17.78125 69.234375 L 29.617188 26.800781 C 29.816406 26.042969 29.957031 25.425781 30.035156 23.289062 C 30.035156 22.980469 30.15625 22.859375 30.375 22.859375 L 39.128906 22.859375 C 39.425781 22.859375 39.546875 22.941406 39.628906 23.289062 L 52.863281 69.316406 C 52.945312 69.664062 52.863281 69.871094 52.523438 69.871094 L 45.65625 69.871094 C 45.3125 69.871094 45.113281 69.746094 45.035156 69.4375 L 41.609375 56.625 Z M 28.253906 56.625 "/>
</g>
</svg>
