<svg width="66" height="100" viewBox="0 0 66 100" fill="none" xmlns="http://www.w3.org/2000/svg">
<g clip-path="url(#clip0)">
<path d="M16.2872 99.5567C25.2801 99.5567 32.5744 92.1286 32.5744 82.9707V66.3848H16.2872C7.29427 66.3848 0 73.8128 0 82.9707C0 92.1286 7.29427 99.5567 16.2872 99.5567Z" fill="#0ACF83"/>
<path d="M0 49.7774C0 40.6195 7.29427 33.1914 16.2872 33.1914H32.5744V66.3837H16.2872C7.29427 66.3633 0 58.9353 0 49.7774Z" fill="#A259FF"/>
<path d="M0 16.586C0 7.42807 7.29427 0 16.2872 0H32.5744V33.1923H16.2872C7.29427 33.1923 0 25.7439 0 16.586Z" fill="#F24E1E"/>
<path d="M32.5945 0H48.8817C57.8746 0 65.1689 7.42807 65.1689 16.586C65.1689 25.7439 57.8746 33.1719 48.8817 33.1719H32.5945V0Z" fill="#FF7262"/>
<path d="M65.1689 49.7774C65.1689 58.9353 57.8746 66.3633 48.8817 66.3633C39.8888 66.3633 32.5945 58.9353 32.5945 49.7774C32.5945 40.6195 39.8888 33.1914 48.8817 33.1914C57.8746 33.1914 65.1689 40.6195 65.1689 49.7774Z" fill="#1ABCFE"/>
</g>
<defs>
<clipPath id="clip0">
<rect width="65.1688" height="99.5565" fill="white"/>
</clipPath>
</defs>
</svg>
