<?xml version="1.0" encoding="UTF-8"?>
<svg xmlns="http://www.w3.org/2000/svg" xmlns:xlink="http://www.w3.org/1999/xlink" width="88pt" height="100pt" viewBox="0 0 88 100" version="1.1">
<g id="surface1">
<path style=" stroke:none;fill-rule:nonzero;fill:rgb(89.411765%,30.196078%,14.901961%);fill-opacity:1;" d="M 8.007812 89.316406 L 0 0 L 88 0 L 79.984375 89.300781 L 43.945312 99.234375 Z M 8.007812 89.316406 "/>
<path style=" stroke:none;fill-rule:nonzero;fill:rgb(94.509804%,39.607843%,16.078431%);fill-opacity:1;" d="M 44 91.640625 L 73.121094 83.613281 L 79.972656 7.304688 L 44 7.304688 Z M 44 91.640625 "/>
<path style=" stroke:none;fill-rule:nonzero;fill:rgb(92.156863%,92.156863%,92.156863%);fill-opacity:1;" d="M 44 40.425781 L 29.421875 40.425781 L 28.414062 29.210938 L 44 29.210938 L 44 18.257812 L 16.375 18.257812 L 16.640625 21.195312 L 19.347656 51.382812 L 44 51.382812 Z M 44 68.875 L 43.953125 68.890625 L 31.683594 65.59375 L 30.898438 56.859375 L 19.839844 56.859375 L 21.382812 74.058594 L 43.949219 80.289062 L 44 80.273438 Z M 44 68.875 "/>
<path style=" stroke:none;fill-rule:nonzero;fill:rgb(100%,100%,100%);fill-opacity:1;" d="M 43.960938 40.425781 L 43.960938 51.382812 L 57.527344 51.382812 L 56.25 65.589844 L 43.960938 68.886719 L 43.960938 80.28125 L 66.546875 74.058594 L 66.710938 72.207031 L 69.300781 43.367188 L 69.570312 40.425781 Z M 43.960938 18.257812 L 43.960938 29.210938 L 70.574219 29.210938 L 70.792969 26.746094 L 71.296875 21.195312 L 71.558594 18.257812 Z M 43.960938 18.257812 "/>
</g>
</svg>
