<svg width="103" height="103" viewBox="0 0 103 103" fill="none" xmlns="http://www.w3.org/2000/svg">
<path d="M4.29004 4.40039H98.6895V98.6002H4.29004V4.40039Z" fill="url(#paint0_radial)"/>
<path d="M4.28995 4.40008H98.6894V98.5999H4.28995V4.40008ZM0 103H103V0H0V103ZM67.4636 36.7238C67.4636 36.3641 67.5873 36.1949 67.9792 36.1949H74.7235C75.0741 36.1949 75.2391 36.3218 75.2391 36.7238V71.459C75.2391 71.8186 75.1566 71.9879 74.7235 71.9879H68.0617C67.6286 71.9879 67.5048 71.7763 67.5048 71.4167V36.7238H67.4636ZM66.9892 26.7178C66.9892 23.9043 68.9279 22.2331 71.3616 22.2331C73.981 22.2331 75.7341 24.0312 75.7341 26.7178C75.7341 29.6159 73.8985 31.2025 71.2791 31.2025C68.8042 31.2237 66.9892 29.6371 66.9892 26.7178ZM47.6844 51.1933C46.4882 46.3066 43.642 35.6661 42.5695 30.5044H42.487C41.5795 35.6449 39.3108 44.3604 37.5164 51.1933H47.6844ZM35.7633 58.3222L32.3809 71.5225C32.2984 71.8821 32.1746 71.9667 31.7415 71.9667H25.4303C24.9972 71.9667 24.9147 71.8398 24.9972 71.311L37.1864 27.564C37.3927 26.7813 37.537 26.062 37.6195 23.9043C37.6195 23.587 37.7433 23.4601 37.9702 23.4601H46.9832C47.2926 23.4601 47.4163 23.5447 47.4988 23.9043L61.1524 71.3956C61.2349 71.7552 61.1524 71.9667 60.8018 71.9667H53.6862C53.3356 71.9667 53.1294 71.8821 53.0469 71.5648L49.52 58.3222H35.7633Z" fill="#FF7F18"/>
<defs>
<radialGradient id="paint0_radial" cx="0" cy="0" r="1" gradientUnits="userSpaceOnUse" gradientTransform="translate(35.4114 25.5386) scale(71.7467 71.2472)">
<stop stop-color="#423325" stop-opacity="0.98"/>
<stop offset="1" stop-color="#1C0A00"/>
</radialGradient>
</defs>
</svg>
