<svg width="103" height="103" viewBox="0 0 103 103" fill="none" xmlns="http://www.w3.org/2000/svg">
<path d="M4.28418 4.36133H98.52V97.6616H4.28418V4.36133Z" fill="url(#paint0_radial)"/>
<path d="M4.28438 4.361H98.5202V97.6611H4.28438V4.361ZM0 102.022H102.784V0H0V102.022ZM69.3122 41.8698C65.9342 41.8698 64.7807 43.61 64.7807 45.0566C64.7807 46.6291 65.5428 47.7194 70.0949 50.1095C76.8099 53.4222 78.9109 56.6091 78.9109 61.2636C78.9109 68.2454 73.679 71.9984 66.6139 71.9984C62.8856 71.9984 59.6724 71.2226 57.8391 70.1324C57.5302 70.0066 57.489 69.7759 57.489 69.4405V63.0038C57.489 62.5635 57.695 62.4377 58.0039 62.6474C60.7023 64.4295 63.792 65.2262 66.6139 65.2262C69.992 65.2262 71.4132 63.7796 71.4132 61.8297C71.4132 60.2572 70.4245 58.8734 66.0989 56.5881C60.0225 53.6319 57.489 50.6337 57.489 45.6018C57.489 39.9828 61.8146 35.3073 69.3122 35.3073C72.9993 35.3073 75.574 35.8734 76.9747 36.5233C77.3248 36.733 77.4072 37.0894 77.4072 37.4039V43.3793C77.4072 43.7358 77.2012 43.9454 76.7687 43.8196C74.8737 42.6036 72.0929 41.8698 69.3122 41.8698ZM32.483 47.0484C33.4717 47.1323 34.2338 47.1323 35.9435 47.1323C40.9488 47.1323 45.6657 45.3502 45.6657 38.4103C45.6657 32.8752 42.2877 30.0867 36.582 30.0867C34.8724 30.0867 33.2451 30.1705 32.4624 30.2125L32.483 47.0484ZM24.8412 23.9016C24.8412 23.5871 25.4385 23.3775 25.7887 23.3775C28.5282 23.2517 32.6066 23.1678 36.8292 23.1678C48.6936 23.1678 53.3282 29.7931 53.3282 38.2426C53.3282 49.3128 45.4392 54.0722 35.7581 54.0722C34.1309 54.0722 33.5747 53.9883 32.4212 53.9883V70.7194C32.4212 71.0758 32.2976 71.2436 31.9063 71.2436H25.3561C25.006 71.2436 24.8412 71.1178 24.8412 70.7194V23.9016Z" fill="#31C5F0"/>
<defs>
<radialGradient id="paint0_radial" cx="0" cy="0" r="1" gradientUnits="userSpaceOnUse" gradientTransform="translate(35.3299 25.2933) scale(71.6086 70.57)">
<stop stop-color="#34364E" stop-opacity="0.98"/>
<stop offset="1" stop-color="#0C0824"/>
</radialGradient>
</defs>
</svg>
