<svg width="104" height="102" viewBox="0 0 104 102" fill="none" xmlns="http://www.w3.org/2000/svg">
<path d="M4.3335 4.33398H99.6669V97.0674H4.3335V4.33398Z" fill="url(#paint0_radial)"/>
<path d="M4.33327 4.33327H99.6667V97.0667H4.33327V4.33327ZM0 101.4H104V0H0V101.4ZM62.4 42.8133C62.4 42.2932 62.4 41.0367 62.1834 38.6099C62.1834 38.2633 62.2267 38.1766 62.53 38.0466C65.1733 36.9633 71.37 35.0567 78.3899 35.0567C78.7366 35.0567 78.9099 35.1433 78.9099 35.4899V41.7733C78.9099 42.1199 78.7799 42.2066 78.4333 42.2066C75.7031 42.0766 71.76 42.4232 70.2431 43.0731V70.3733C70.2431 70.7198 70.1132 70.8932 69.723 70.8932H62.9199C62.5733 70.8932 62.3998 70.7633 62.3998 70.3733V42.8133H62.4ZM34.6667 46.7567C35.6633 46.8433 36.4433 46.8433 38.1768 46.8433C43.2468 46.8433 48.0135 45.0667 48.0135 38.1768C48.0135 32.6735 44.6334 29.9 38.8267 29.9C37.0934 29.9 35.4468 29.9867 34.6667 30.03V46.7567ZM26.9967 23.7466C26.9967 23.4433 27.0834 23.2265 27.43 23.2265C30.2033 23.0965 34.2766 23.0099 38.5667 23.0099C50.57 23.0099 55.8133 29.5965 55.8133 38.0466C55.8133 49.0532 47.84 53.7766 38.0468 53.7766C36.4 53.7766 35.8367 53.6899 34.6667 53.6899V70.33C34.6667 70.6766 34.5367 70.8499 34.1466 70.8499H27.4733C27.1267 70.8499 26.9532 70.7199 26.9532 70.33V23.7466H26.9967Z" fill="#E579FF"/>
<defs>
<radialGradient id="paint0_radial" cx="0" cy="0" r="1" gradientUnits="userSpaceOnUse" gradientTransform="translate(35.7317 25.1156) scale(72.4534 70.148)">
<stop stop-color="#4B2D4F" stop-opacity="0.98"/>
<stop offset="1" stop-color="#180024"/>
</radialGradient>
</defs>
</svg>
