<?xml version="1.0" encoding="UTF-8"?>
<svg xmlns="http://www.w3.org/2000/svg" xmlns:xlink="http://www.w3.org/1999/xlink" width="115pt" height="100pt" viewBox="0 0 115 100" version="1.1">
<g id="surface1">
<path style=" stroke:none;fill-rule:nonzero;fill:rgb(38.039216%,85.490196%,98.431373%);fill-opacity:1;" d="M 67.519531 50 C 67.519531 55.53125 63.03125 60.019531 57.5 60.019531 C 51.96875 60.019531 47.480469 55.53125 47.480469 50 C 47.480469 44.46875 51.96875 39.980469 57.5 39.980469 C 63.03125 39.980469 67.519531 44.46875 67.519531 50 Z M 67.519531 50 "/>
<path style="fill:none;stroke-width:1;stroke-linecap:butt;stroke-linejoin:miter;stroke:rgb(38.039216%,85.490196%,98.431373%);stroke-opacity:1;stroke-miterlimit:4;" d="M 10.99992 0 C 10.99992 -2.319727 6.075096 -4.19981 0 -4.19981 C -6.075096 -4.19981 -10.99992 -2.319727 -10.99992 0 C -10.99992 2.319727 -6.075096 4.19981 0 4.19981 C 6.075096 4.19981 10.99992 2.319727 10.99992 0 Z M 10.99992 0 " transform="matrix(4.886754,0,0,4.886754,57.5,50)"/>
<path style="fill:none;stroke-width:1;stroke-linecap:butt;stroke-linejoin:miter;stroke:rgb(38.039216%,85.490196%,98.431373%);stroke-opacity:1;stroke-miterlimit:4;" d="M 10.99986 -0.000496242 C 11.00047 -2.319681 6.0752 -4.199659 -0.0000389571 -4.199742 C -6.075278 -4.199825 -10.999542 -2.319781 -10.99986 0.000496242 C -11.00047 2.319681 -6.0752 4.199659 0.0000389571 4.199742 C 6.075278 4.199825 10.999542 2.319781 10.99986 -0.000496242 Z M 10.99986 -0.000496242 " transform="matrix(2.443377,4.232053,-4.232053,2.443377,57.5,50)"/>
<path style="fill:none;stroke-width:1;stroke-linecap:butt;stroke-linejoin:miter;stroke:rgb(38.039216%,85.490196%,98.431373%);stroke-opacity:1;stroke-miterlimit:4;" d="M 10.99986 0.000496242 C 10.999542 -2.319781 6.075278 -4.199825 0.0000389571 -4.199742 C -6.0752 -4.199659 -11.00047 -2.319681 -10.99986 -0.000496242 C -10.999542 2.319781 -6.075278 4.199825 -0.0000389571 4.199742 C 6.0752 4.199659 11.00047 2.319681 10.99986 0.000496242 Z M 10.99986 0.000496242 " transform="matrix(-2.443377,4.232053,-4.232053,-2.443377,57.5,50)"/>
</g>
</svg>
