<svg xmlns="http://www.w3.org/2000/svg" viewBox="0 0 1000 1000"><defs><style>.cls-1{fill:#fff;opacity:0;}.cls-2{fill:#32373c;}</style></defs><title>wordpress</title><g id="W_Mark" data-name="W Mark"><rect id="Safety_Area" data-name="Safety Area" class="cls-1" width="1000" height="1000"/><g id="W_Mark-2" data-name="W Mark"><path class="cls-2" d="M500,186.67a311.61,311.61,0,0,1,175.17,53.5A314.43,314.43,0,0,1,788.72,378a312.83,312.83,0,0,1-28.89,297.13A314.43,314.43,0,0,1,622,788.72a312.83,312.83,0,0,1-297.13-28.89A314.43,314.43,0,0,1,211.28,622a312.83,312.83,0,0,1,28.89-297.13A314.43,314.43,0,0,1,378,211.28a311.43,311.43,0,0,1,122-24.61m0-20C315.91,166.67,166.67,315.9,166.67,500S315.91,833.33,500,833.33,833.33,684.09,833.33,500,684.09,166.67,500,166.67Z"/><path class="cls-2" d="M222.22,500c0,109.94,63.89,205,156.56,250l-132.51-363A276.79,276.79,0,0,0,222.22,500Zm465.3-14c0-34.34-12.33-58.11-22.9-76.6-14.08-22.9-27.28-42.26-27.28-65.15,0-25.53,19.36-49.3,46.64-49.3,1.24,0,2.4.15,3.6.22A276.74,276.74,0,0,0,500,222.22c-97.05,0-182.42,49.8-232.09,125.2,6.52.21,12.67.34,17.88.34,29,0,74-3.53,74-3.53,15-.88,16.74,21.12,1.78,22.89,0,0-15.06,1.76-31.79,2.64L431,670.64l60.8-182.31L448.48,369.76c-15-.88-29.13-2.64-29.13-2.64-15-.89-13.22-23.77,1.76-22.89,0,0,45.86,3.53,73.15,3.53,29,0,74-3.53,74-3.53,15-.88,16.73,21.12,1.77,22.89,0,0-15.07,1.76-31.79,2.64L638.67,668.35l28.66-90.8C680.06,537.86,687.52,509.75,687.52,486ZM504.88,524.29,421.52,766.46A277.88,277.88,0,0,0,592.25,762a25.15,25.15,0,0,1-2-3.83ZM743.76,366.73a213.83,213.83,0,0,1,1.87,28.56c0,28.18-5.28,59.87-21.13,99.49l-84.84,245.3C722.24,691.93,777.78,602.47,777.78,500A276.42,276.42,0,0,0,743.76,366.73Z"/></g></g></svg>